<svg width="287" height="246" viewBox="0 0 287 246" fill="none" xmlns="http://www.w3.org/2000/svg">
<path fill-rule="evenodd" clip-rule="evenodd" d="M173.029 204.128C176.398 211.096 180.706 217.602 184.822 224.774C200.352 251.833 192.862 249.536 217.553 233.451C235.369 221.85 258.445 204.243 270.639 188.971C297.171 155.746 287.697 127.318 268.644 93.3728C243.81 49.1237 220.57 -1.5662 157.422 15.3872C148.91 17.6733 141.348 20.9212 134.133 24.5866C126.28 28.5763 119.355 33.8684 112.486 36.9403C110.557 32.2692 94.3018 3.48959 90.7408 0C79.2938 1.50575 28.6755 41.7268 16.3383 60.1255C-7.37446 95.494 -3.22005 126.917 15.6567 164.038C30.7362 193.692 46.5961 229.434 76.9088 238.699C126.263 253.784 159.912 210.013 173.024 204.128H173.029ZM106.903 154.097C112.876 151.525 156.312 116.63 162.231 111.914C179.437 98.2089 200.995 83.0414 231.413 83.5634C210.585 37.88 180.992 28.6147 140.524 51.9647C138.194 53.3111 136.814 54.2344 134.144 55.9819L127.236 61.2246C130.572 70.292 143.189 85.8222 144.228 93.7356C143.612 96.2305 102.732 126.274 95.5328 133.215C98.4948 139.721 104.336 147.525 106.908 154.092L106.903 154.097ZM206.738 207.304C212.168 205.188 230.105 190.51 235.27 186.157C243.959 178.832 253.081 171.776 258.186 157.993C266.352 135.962 248.047 99.885 212.646 113.14C216.3 121.466 234.82 148.332 234.43 155.279C233.369 157.96 200.754 180.91 195.121 186.63C195.956 190.515 204.034 204.523 206.738 207.298V207.304ZM200.188 148.613C199.22 144.387 192.076 131.896 188.752 127.631C188.625 127.466 188.367 127.153 188.158 126.922C179.129 132.286 127.335 174.211 111.733 185.68C96.0218 197.225 101.21 197.687 86.7236 173.111L73.2049 151.366C40.661 177.64 72.8971 233.94 119.537 208.551C141.277 196.72 188.949 154.191 200.188 148.607V148.613ZM39.529 149.789L46.5191 140.227C64.1539 118.745 87.4599 106.133 109.497 86.7673L81.7118 37.5339C76.8813 39.9134 72.3751 44.0295 68.3579 47.1179C54.3446 57.8834 45.2331 64.6648 35.7315 80.64C23.8229 100.654 25.7739 131.956 39.529 149.783V149.789Z" fill="#1E3888"/>
</svg>
