<?xml version="1.0" encoding="UTF-8"?>
<!DOCTYPE svg PUBLIC "-//W3C//DTD SVG 1.1//EN" "http://www.w3.org/Graphics/SVG/1.1/DTD/svg11.dtd">
<svg xmlns="http://www.w3.org/2000/svg" version="1.1" width="1426px" height="203px" style="shape-rendering:geometricPrecision; text-rendering:geometricPrecision; image-rendering:optimizeQuality; fill-rule:evenodd; clip-rule:evenodd" xmlns:xlink="http://www.w3.org/1999/xlink">
<g><path style="opacity:0.982" fill="#1d3887" d="M 71.5,-0.5 C 72.8333,-0.5 74.1667,-0.5 75.5,-0.5C 81.5624,9.2809 87.3958,19.2809 93,29.5C 106.77,19.8682 121.937,13.3682 138.5,10C 157.344,7.12309 173.678,12.1231 187.5,25C 205.147,46.4398 219.647,69.9398 231,95.5C 240.721,118.095 237.721,138.761 222,157.5C 204.708,174.646 185.875,189.646 165.5,202.5C 164.167,202.5 162.833,202.5 161.5,202.5C 154.759,191.357 148.259,180.024 142,168.5C 133.5,175 125,181.5 116.5,188C 77.8908,209.307 47.7242,200.807 26,162.5C 14.3618,143.239 5.52842,122.906 -0.5,101.5C -0.5,93.8333 -0.5,86.1667 -0.5,78.5C 2.47071,66.5544 7.63737,55.5544 15,45.5C 31.9917,27.6521 50.825,12.3188 71.5,-0.5 Z M 65.5,31.5 C 66.4584,31.9528 67.2917,32.6195 68,33.5C 73.6667,43.5 79.3333,53.5 85,63.5C 86.9137,66.2975 87.9137,69.2975 88,72.5C 74.2286,82.6375 60.7286,93.1375 47.5,104C 41.9571,109.874 36.7904,116.041 32,122.5C 18.5327,99.0387 20.1994,76.7054 37,55.5C 46.2931,47.1252 55.7931,39.1252 65.5,31.5 Z M 144.5,32.5 C 159.534,32.9325 171.367,39.2658 180,51.5C 183.546,56.7551 186.712,62.2551 189.5,68C 175.572,68.3984 162.572,72.0651 150.5,79C 129.383,94.4496 108.549,110.283 88,126.5C 85.5879,121.341 82.9212,116.341 80,111.5C 79.3333,110.5 79.3333,109.5 80,108.5C 92.6667,98.5 105.333,88.5 118,78.5C 118.667,76.8333 118.667,75.1667 118,73.5C 114.919,67.6688 111.585,62.0021 108,56.5C 106.41,54.3502 105.743,52.0168 106,49.5C 117.536,40.6434 130.369,34.9767 144.5,32.5 Z M 180.5,91.5 C 198.231,90.0542 209.064,98.0542 213,115.5C 214.353,126.943 210.853,136.61 202.5,144.5C 192.619,153.681 182.119,162.014 171,169.5C 169.739,169.241 168.739,168.574 168,167.5C 165.373,163.081 162.873,158.581 160.5,154C 170.215,145.95 180.215,138.284 190.5,131C 191.899,129.938 192.899,128.605 193.5,127C 188.538,115.407 182.538,104.407 175.5,94C 177.175,93.0147 178.842,92.1814 180.5,91.5 Z M 153.5,105.5 C 156.346,107.475 158.513,110.141 160,113.5C 161.914,116.298 162.914,119.298 163,122.5C 148.88,132.952 135.047,143.785 121.5,155C 114.109,160.723 106.443,166.056 98.5,171C 86.0735,178.228 73.7401,178.228 61.5,171C 46.7588,156.858 45.7588,141.858 58.5,126C 59.3317,125.312 59.9984,125.479 60.5,126.5C 66.9318,136.111 72.7652,146.111 78,156.5C 79.1171,158.124 80.6171,159.124 82.5,159.5C 86.9443,156.899 91.2776,154.066 95.5,151C 114.733,135.588 134.066,120.421 153.5,105.5 Z"/></g>
<g><path style="opacity:0.968" fill="#1d3887" d="M 694.5,40.5 C 708.55,37.9273 716.717,43.5939 719,57.5C 719.667,84.1667 719.667,110.833 719,137.5C 717.478,145.36 712.645,149.027 704.5,148.5C 697.432,148.892 692.599,145.892 690,139.5C 689.167,107.162 689.333,74.8282 690.5,42.5C 692.026,42.0057 693.359,41.339 694.5,40.5 Z"/></g>
<g><path style="opacity:0.957" fill="#ff6932" d="M 1200.5,44.5 C 1210.03,42.9136 1215.69,46.7469 1217.5,56C 1215.7,65.4111 1210.03,69.0778 1200.5,67C 1194.09,63.6772 1191.93,58.5105 1194,51.5C 1195.69,48.6424 1197.86,46.309 1200.5,44.5 Z"/></g>
<g><path style="opacity:0.973" fill="#ff6932" d="M 1011.5,45.5 C 1031.91,42.905 1048.41,49.5716 1061,65.5C 1061.83,67.1667 1062.67,68.8333 1063.5,70.5C 1057.67,74.1646 1051.5,77.1646 1045,79.5C 1033.48,64.2352 1019.31,61.4018 1002.5,71C 987.921,85.717 986.088,101.884 997,119.5C 1009.64,132.261 1023.47,133.761 1038.5,124C 1040.79,121.257 1042.95,118.423 1045,115.5C 1051.25,118.706 1057.41,122.04 1063.5,125.5C 1050.58,146.65 1031.91,154.483 1007.5,149C 981.496,142.022 967.829,125.022 966.5,98C 968.498,69.18 983.498,51.68 1011.5,45.5 Z"/></g>
<g><path style="opacity:0.977" fill="#1d3887" d="M 323.5,46.5 C 336.75,45.4634 349.417,47.6301 361.5,53C 371.644,63.7073 370.477,73.2073 358,81.5C 349.414,73.4158 339.247,69.9158 327.5,71C 321.671,71.151 319.171,73.9844 320,79.5C 320.903,80.7014 322.069,81.5348 323.5,82C 336.64,83.6978 348.974,87.6978 360.5,94C 372.479,105.429 374.645,118.596 367,133.5C 361.023,141.243 353.19,146.076 343.5,148C 326.946,151.175 310.946,149.508 295.5,143C 287.92,137.925 285.753,131.092 289,122.5C 291.012,119.154 293.679,116.488 297,114.5C 304.376,119.769 312.543,123.269 321.5,125C 327.924,126.393 333.757,125.227 339,121.5C 339.944,118.653 339.444,116.153 337.5,114C 329.201,111.873 320.868,109.873 312.5,108C 288.968,98.0586 283.468,81.8919 296,59.5C 303.727,51.9868 312.893,47.6534 323.5,46.5 Z"/></g>
<g><path style="opacity:0.998" fill="#ff6932" d="M 1075.5,47.5 C 1082.17,47.5 1088.83,47.5 1095.5,47.5C 1095.5,81.1667 1095.5,114.833 1095.5,148.5C 1088.83,148.5 1082.17,148.5 1075.5,148.5C 1075.5,114.833 1075.5,81.1667 1075.5,47.5 Z"/></g>
<g><path style="opacity:0.971" fill="#1d3887" d="M 407.5,70.5 C 423.964,67.7325 437.797,72.3991 449,84.5C 454.761,92.9671 457.094,102.3 456,112.5C 455.727,114.329 454.893,115.829 453.5,117C 436.823,117.167 420.157,117.667 403.5,118.5C 406.558,125.367 411.891,128.701 419.5,128.5C 427.663,128.586 433.996,125.252 438.5,118.5C 449.196,120.022 453.363,126.022 451,136.5C 448.448,140.719 444.948,143.886 440.5,146C 422.093,152.257 404.76,150.257 388.5,140C 375.566,125.209 373.066,108.709 381,90.5C 387.089,80.0549 395.922,73.3883 407.5,70.5 Z M 414.5,89.5 C 422.576,89.0329 427.576,92.6995 429.5,100.5C 420.518,101.665 411.518,101.832 402.5,101C 404.454,94.876 408.454,91.0426 414.5,89.5 Z"/></g>
<g><path style="opacity:0.979" fill="#1d3887" d="M 486.5,70.5 C 497.222,70.1254 507.889,70.6254 518.5,72C 529.779,74.9453 536.612,82.1119 539,93.5C 539.833,111.176 539.666,128.843 538.5,146.5C 527.101,151.273 518.101,148.607 511.5,138.5C 499.664,149.248 486.331,151.415 471.5,145C 460.887,136.387 458.72,125.887 465,113.5C 471.035,106.899 478.535,103.065 487.5,102C 495.146,101.097 502.812,100.43 510.5,100C 506.616,91.5386 500.283,89.2052 491.5,93C 488.305,94.6946 485.972,97.1946 484.5,100.5C 477.299,102.492 471.132,100.825 466,95.5C 462.806,87.613 464.639,81.113 471.5,76C 476.434,73.6369 481.434,71.8035 486.5,70.5 Z M 503.5,115.5 C 505.833,115.5 508.167,115.5 510.5,115.5C 510.068,127.432 504.068,131.932 492.5,129C 488.5,125.667 488.5,122.333 492.5,119C 496.161,117.407 499.828,116.241 503.5,115.5 Z"/></g>
<g><path style="opacity:0.972" fill="#1d3887" d="M 559.5,70.5 C 569.379,69.5163 576.213,73.5163 580,82.5C 588.923,70.7493 600.423,67.2493 614.5,72C 620.272,74.1055 624.438,77.9389 627,83.5C 634.921,72.0773 645.755,67.9106 659.5,71C 670.225,74.5852 676.058,82.0852 677,93.5C 677.667,108.167 677.667,122.833 677,137.5C 675.478,145.36 670.645,149.027 662.5,148.5C 656.992,148.671 652.492,146.671 649,142.5C 647.719,128.568 647.052,114.568 647,100.5C 645.976,96.3204 643.31,94.3204 639,94.5C 635.513,94.7439 632.513,96.0772 630,98.5C 629.667,111.833 629.333,125.167 629,138.5C 626.907,145.641 622.073,148.975 614.5,148.5C 606.927,148.975 602.093,145.641 600,138.5C 599.667,125.833 599.333,113.167 599,100.5C 598.015,96.3339 595.348,94.3339 591,94.5C 587.108,94.6118 584.108,96.2785 582,99.5C 581.667,112.5 581.333,125.5 581,138.5C 578.907,145.641 574.073,148.975 566.5,148.5C 558.927,148.975 554.093,145.641 552,138.5C 551.333,116.833 551.333,95.1667 552,73.5C 554.567,72.4131 557.067,71.4131 559.5,70.5 Z"/></g>
<g><path style="opacity:0.973" fill="#1d3887" d="M 759.5,70.5 C 779.201,67.2748 794.368,73.9415 805,90.5C 808.132,97.8886 809.132,105.555 808,113.5C 807.535,114.931 806.701,116.097 805.5,117C 788.833,117.333 772.167,117.667 755.5,118C 758.574,125.544 764.241,129.044 772.5,128.5C 780.317,128.175 786.484,124.842 791,118.5C 803.999,121.509 807.333,128.842 801,140.5C 792.311,146.968 782.478,149.968 771.5,149.5C 745.359,149.353 731.025,136.353 728.5,110.5C 729.768,89.8952 740.101,76.5619 759.5,70.5 Z M 766.5,89.5 C 775.126,89.1371 780.126,93.1371 781.5,101.5C 772.833,101.5 764.167,101.5 755.5,101.5C 756.756,95.2461 760.422,91.2461 766.5,89.5 Z"/></g>
<g><path style="opacity:0.976" fill="#1d3887" d="M 838.5,70.5 C 847.559,70.1541 856.559,70.6541 865.5,72C 879.306,75.7696 883.14,83.9362 877,96.5C 873.584,100.643 870.417,100.476 867.5,96C 860.716,91.8036 853.383,90.1369 845.5,91C 841.87,91.271 840.87,92.9377 842.5,96C 853.301,97.9489 863.635,101.282 873.5,106C 883.577,115.205 885.077,125.705 878,137.5C 872.877,143.479 866.377,146.979 858.5,148C 849.833,148.667 841.167,148.667 832.5,148C 823.717,147.203 817.217,143.036 813,135.5C 812.021,128.785 814.354,123.452 820,119.5C 828.849,126.922 839.016,129.755 850.5,128C 854.395,125.699 854.062,123.699 849.5,122C 840.433,120.568 831.766,117.901 823.5,114C 813.294,104.468 811.794,93.6347 819,81.5C 824.341,75.5845 830.841,71.9178 838.5,70.5 Z"/></g>
<g><path style="opacity:0.975" fill="#1d3887" d="M 913.5,70.5 C 923.632,69.9581 933.632,70.7914 943.5,73C 955.714,78.3039 958.214,86.4705 951,97.5C 949.401,99.0356 947.567,99.5356 945.5,99C 938.407,92.5247 930.074,89.8581 920.5,91C 915.701,92.3795 915.367,94.3795 919.5,97C 929.715,98.3026 939.382,101.303 948.5,106C 958.919,115.781 960.086,126.614 952,138.5C 946.986,143.832 940.819,146.999 933.5,148C 924.833,148.667 916.167,148.667 907.5,148C 899.926,147.482 893.759,144.315 889,138.5C 886.096,130.637 888.096,124.304 895,119.5C 903.849,126.922 914.016,129.755 925.5,128C 929.395,125.699 929.062,123.699 924.5,122C 915.433,120.568 906.766,117.901 898.5,114C 888.324,104.411 886.824,93.5781 894,81.5C 899.341,75.5845 905.841,71.9178 913.5,70.5 Z"/></g>
<g><path style="opacity:0.972" fill="#ff6932" d="M 1134.5,73.5 C 1142.9,73.1301 1151.24,73.6301 1159.5,75C 1170.56,78.9682 1176.4,86.8015 1177,98.5C 1177.5,115.163 1177.67,131.83 1177.5,148.5C 1170.83,148.5 1164.17,148.5 1157.5,148.5C 1157.66,146.143 1157.5,143.81 1157,141.5C 1146.91,150.583 1135.41,152.75 1122.5,148C 1110.12,140.882 1105.96,130.382 1110,116.5C 1115.02,106.565 1123.19,101.565 1134.5,101.5C 1142.91,101.692 1150.41,104.358 1157,109.5C 1157.69,92.2214 1149.52,86.0547 1132.5,91C 1127.95,92.8578 1123.78,95.3578 1120,98.5C 1117.07,93.9663 1114.73,89.2996 1113,84.5C 1119.35,79.0767 1126.51,75.41 1134.5,73.5 Z M 1139.5,115.5 C 1146.15,115.284 1151.99,117.284 1157,121.5C 1159.14,129.708 1155.97,134.542 1147.5,136C 1142.27,136.977 1137.27,136.31 1132.5,134C 1126.42,124.759 1128.75,118.592 1139.5,115.5 Z"/></g>
<g><path style="opacity:0.976" fill="#ff6832" d="M 1269.5,73.5 C 1281.49,70.9332 1290.83,74.5999 1297.5,84.5C 1308.27,73.2826 1320.94,70.4492 1335.5,76C 1341.11,80.053 1343.94,85.553 1344,92.5C 1344.5,111.164 1344.67,129.83 1344.5,148.5C 1337.5,148.5 1330.5,148.5 1323.5,148.5C 1323.67,131.163 1323.5,113.83 1323,96.5C 1320.93,92.8754 1317.76,90.8754 1313.5,90.5C 1307.59,91.2511 1302.76,93.9178 1299,98.5C 1298.5,115.163 1298.33,131.83 1298.5,148.5C 1291.83,148.5 1285.17,148.5 1278.5,148.5C 1278.67,131.497 1278.5,114.497 1278,97.5C 1273.6,90.6071 1267.76,89.1071 1260.5,93C 1258.04,94.4578 1255.87,96.2911 1254,98.5C 1253.5,115.163 1253.33,131.83 1253.5,148.5C 1246.83,148.5 1240.17,148.5 1233.5,148.5C 1233.5,123.833 1233.5,99.1667 1233.5,74.5C 1240.17,74.5 1246.83,74.5 1253.5,74.5C 1253.34,77.1873 1253.5,79.854 1254,82.5C 1258.56,78.3093 1263.72,75.3093 1269.5,73.5 Z"/></g>
<g><path style="opacity:0.968" fill="#ff6832" d="M 1378.5,73.5 C 1393.35,71.2133 1406.69,74.5466 1418.5,83.5C 1415.92,88.3331 1413.08,92.9998 1410,97.5C 1401.97,89.5585 1392.47,87.0585 1381.5,90C 1376.83,92.6404 1376.5,95.6404 1380.5,99C 1389.2,101.207 1397.87,103.54 1406.5,106C 1418,111.166 1422.5,119.999 1420,132.5C 1415.79,143.037 1407.96,148.87 1396.5,150C 1381.03,152.116 1367.37,148.283 1355.5,138.5C 1358.21,133.718 1361.37,129.385 1365,125.5C 1373.96,132.597 1384.13,135.43 1395.5,134C 1403.37,129.899 1403.37,125.899 1395.5,122C 1385.8,120.574 1376.46,117.908 1367.5,114C 1359.22,108.257 1356.39,100.424 1359,90.5C 1360.34,86.4904 1362.51,82.9904 1365.5,80C 1369.65,77.2599 1373.98,75.0933 1378.5,73.5 Z"/></g>
<g><path style="opacity:0.959" fill="#ff6832" d="M 1195.5,74.5 C 1202.17,74.5 1208.83,74.5 1215.5,74.5C 1215.5,99.1667 1215.5,123.833 1215.5,148.5C 1208.83,148.5 1202.17,148.5 1195.5,148.5C 1195.5,123.833 1195.5,99.1667 1195.5,74.5 Z"/></g>
</svg>
